<?xml version="1.0" encoding="utf-8"?>
<!-- Generator: Adobe Illustrator 19.1.0, SVG Export Plug-In . SVG Version: 6.00 Build 0)  -->
<svg version="1.1" id="Layer_1" xmlns="http://www.w3.org/2000/svg" xmlns:xlink="http://www.w3.org/1999/xlink" x="0px" y="0px"
	 viewBox="0 0 78 78" style="enable-background:new 0 0 78 78;" xml:space="preserve">
<style type="text/css">
	.st0{fill:#353535;}
	.st1{fill-rule:evenodd;clip-rule:evenodd;fill:#353535;}
</style>
<g id="XMLID_2_">
	<g>
		<g id="XMLID_54_">
			<g id="XMLID_55_">
				<g id="XMLID_56_">
					<line id="XMLID_59_" class="st0" x1="43.7" y1="32" x2="43.7" y2="32"/>
					<polygon id="XMLID_58_" class="st1" points="44.2,14.8 42.4,14.5 40.7,14.3 39,14.2 37.2,14.3 35.5,14.5 33.8,14.8 32.1,15.2 
						30.4,15.7 28.8,16.4 27.2,17.2 25.7,18.1 24.2,19.1 22.9,20.2 21.6,21.3 20.4,22.6 19.3,24 18.2,25.4 17.3,26.9 16.5,28.5 
						15.8,30.1 15.3,31.7 14.8,33.4 14.5,35.2 7.1,35.2 7.5,32.9 0,27.4 3.2,19.6 12.4,21.1 13.6,19.4 14.9,17.8 16.3,16.3 
						17.8,14.9 19.4,13.7 21.1,12.4 19.6,3.2 27.4,0 32.9,7.5 34.9,7.2 36.9,7 39,6.9 41,7 43.1,7.2 45.1,7.5 50.6,0 58.4,3.2 
						56.9,12.4 58.6,13.7 60.2,14.9 61.6,16.3 63.1,17.8 64.4,19.4 65.6,21.1 74.7,19.6 78,27.4 70.5,32.9 70.8,35.2 63.5,35.2 
						63.2,33.4 62.7,31.7 62.1,30.1 61.4,28.5 60.6,26.9 59.7,25.4 58.7,24 57.6,22.6 56.4,21.3 55.1,20.2 53.7,19.1 52.3,18.1 
						50.8,17.2 49.2,16.4 47.6,15.7 45.9,15.2 44.2,14.8 					"/>
					<polygon id="XMLID_57_" class="st1" points="63.5,42.9 70.8,42.9 70.5,45.1 78,50.6 74.7,58.4 65.6,57 64.4,58.6 63.1,60.2 
						61.6,61.7 60.2,63.1 58.6,64.4 56.9,65.6 58.4,74.8 50.6,78 45.1,70.5 43.1,70.9 41,71 39,71.1 36.9,71 34.9,70.9 32.9,70.5 
						27.4,78 19.6,74.8 21.1,65.6 19.4,64.4 17.8,63.1 16.3,61.7 14.9,60.2 13.6,58.6 12.4,57 3.2,58.4 0,50.6 7.5,45.1 7.1,42.9 
						14.5,42.9 14.8,44.6 15.3,46.3 15.8,47.9 16.5,49.5 17.3,51.1 18.2,52.6 19.3,54 20.4,55.4 21.6,56.7 22.9,57.9 24.2,59 
						25.7,59.9 27.2,60.8 28.8,61.6 30.4,62.3 32.1,62.8 33.8,63.3 35.5,63.6 37.2,63.7 39,63.8 40.7,63.7 42.4,63.6 44.2,63.3 
						45.9,62.8 47.6,62.3 49.2,61.6 50.8,60.8 52.3,59.9 53.7,59 55.1,57.9 56.4,56.7 57.6,55.4 58.7,54 59.7,52.6 60.6,51.1 
						61.4,49.5 62.1,47.9 62.7,46.3 63.2,44.6 63.5,42.9 					"/>
				</g>
			</g>
		</g>
		<polygon id="XMLID_53_" class="st0" points="49.6,41 48,38.9 47.3,38.5 48,38.1 49.3,36.5 50,33.7 49.2,30.2 46.8,27.5 43.4,26.6 
			40.2,26.6 40.2,30.4 42,30.4 43.5,30.9 44.6,32 44.9,33.6 44.5,35.1 44.2,35.5 42.7,36.5 35.4,36.5 35.4,30.4 37.9,30.4 
			37.9,26.6 30.3,26.6 30.3,51.7 37.9,51.7 37.9,47.7 35.4,47.7 35.4,40.5 42.6,40.5 44.2,41.4 44.9,42.5 45.3,44.4 44.9,46.2 
			44,47.1 42.6,47.7 40.2,47.7 40.2,51.7 44.7,51.7 47.6,50.3 49.6,47.9 50.4,44.5 		"/>
	</g>
</g>
</svg>
