<?xml version="1.0" encoding="utf-8"?>
<!-- Generator: Adobe Illustrator 19.1.0, SVG Export Plug-In . SVG Version: 6.00 Build 0)  -->
<svg version="1.1" id="Layer_1" xmlns="http://www.w3.org/2000/svg" xmlns:xlink="http://www.w3.org/1999/xlink" x="0px" y="0px"
	 viewBox="0 0 561 102.8" style="enable-background:new 0 0 561 102.8;" xml:space="preserve">
<style type="text/css">
	.st0{fill:#353635;}
	.st1{fill:#FFFFFF;}
</style>
<g>
	<g>
		<polygon class="st0" points="185.9,102.8 245.7,0 305.5,102.8 		"/>
		<g>
			<path class="st0" d="M0,80.1h7.1V20.8H0v-0.6h24.3c14.4,0,22.1,5,22.1,17.5c0,14.8-14.1,17.7-23.7,17.7h-2v24.6h8v0.6H0V80.1z
				 M22.5,54.8c6.9,0,9.4-3.5,9.4-17c0-13.5-2.6-16.9-9.3-16.9h-1.9v34H22.5z"/>
			<path class="st0" d="M65,62.6H47.9l-5.9,17.5h8.9v0.6H34.4v-0.6h6.9l21.4-62.8l23,62.8h6.7v0.6H63.2v-0.6h7.8L65,62.6z M48.1,62
				h16.8l-8.4-24.4L48.1,62z"/>
			<path class="st0" d="M126.8,78.6c-4,0-9.3,2.7-14.6,2.7c-14.2,0-26.4-12.7-26.4-30.8c0-18.1,12.3-30.8,26.4-30.8
				c5.5,0,8.7,2.8,12.3,2.8c1.7,0,2.4-1.4,3.1-2.6l1.1,24.1h-0.5c-0.8-10-5.3-23.7-15.6-23.7c-10.9,0-12.4,17.7-12.4,30.2
				c0,12.5,1.5,30.2,12.4,30.2c1.5,0,2.9-0.3,4.2-0.8V52.8h-6.5v-0.6h24.5v0.6h-5.1v28.3C129.1,79.9,128.5,78.6,126.8,78.6z"/>
			<path class="st0" d="M177.3,41h-0.5c-1.1-13-5.8-20.2-17.1-20.2h-6.6v28.7c7.3,0,12.9-4.3,13.3-13.6h0.5l-1.1,27.9h-0.5
				c0.3-8.4-4.8-13.7-12.1-13.7v30h4c13.2,0,20.2-9.8,22.2-25.1h0.5l-3.2,25.7h-44.2v-0.6h7.1V20.8h-7.1v-0.6h43.3L177.3,41z"/>
		</g>
		<g>
			<path class="st0" d="M331.2,20.6v28.7c7.3,0,12.9-4.3,13.3-13.6h0.5l-1.1,27.9h-0.5c0.3-8.4-4.8-13.7-12.1-13.7v30h9.1v0.6h-29.8
				v-0.6h7.1V20.6h-7.1V20h41.9l1.6,20.8h-0.5c-1.1-13-5.8-20.2-17.1-20.2H331.2z"/>
			<path class="st0" d="M378.5,19.4c12.8,0,25.1,11.2,25.1,30.8c0,19.6-12.3,30.8-25.1,30.8s-25.1-11.2-25.1-30.8
				C353.3,30.6,365.7,19.4,378.5,19.4z M378.5,20c-10.2,0-10.8,15.1-10.8,30.2c0,15.1,0.7,30.2,10.8,30.2
				c10.2,0,10.8-15.1,10.8-30.2C389.3,35.1,388.6,20,378.5,20z"/>
			<path class="st0" d="M446.8,59.9c0,14.4-6.3,21.2-18.5,21.2c-13.1,0-21-3.9-21-22.1V20.6h-7.1V20h26.4v0.6h-5.7v35.5
				c0,10.9,0.6,23.8,10,23.8c8.5,0,15.2-6,15.2-20V20.6h-11.6V20h21.7v0.6h-9.4V59.9z"/>
			<path class="st0" d="M503.5,83.4l-40.1-56.1v52.5h9.3v0.6h-19v-0.6h9V20.6h-9V20h22.6l26.4,37.4V20.6h-10V20h19.7v0.6h-9V83.4z"
				/>
			<path class="st0" d="M509.8,79.9h7.1V20.6h-7.1V20h24.7c16.2,0,26.5,9.8,26.5,30.1c0,17.4-8.3,30.4-23.8,30.4h-27.4V79.9z
				 M534.9,79.9c7.5,0,11.6-5.9,11.6-29.6c0-21.8-1.5-29.6-14.1-29.6h-1.9v59.3H534.9z"/>
		</g>
	</g>
	<g>
		<path class="st1" d="M226.9,41.2l2.2-1.3h2.9l3,0.8l2,2.7v13.7h-3.5V44.7l-0.6-0.9l-1.6-0.5h-1.7l-2,1.3l-0.8,1.1v11.4h-3.5v-17
			h3.5V41.2z"/>
		<path class="st1" d="M246.8,57.4l-3.3-1.6l-1.7-2.5l-0.6-2.8v-3.8l0.6-2.8l1.7-2.5l3.3-1.6h3.4l3.3,1.6l1.7,2.5l0.6,2.8v3.8
			l-0.6,2.8l-1.7,2.5l-3.3,1.6H246.8z M249.6,54l1.7-0.8l0.7-1.1l0.4-2v-3l-0.4-1.9l-0.8-1.2l-1.6-0.8h-2.2l-1.5,0.8l-0.8,1.1
			l-0.4,1.9v3l0.4,2l0.7,1.1l1.6,0.8H249.6z"/>
		<path class="st1" d="M264.5,40.6h4.2V44h-4.2v8.9l0.6,0.8L266,54h0.7l2.6-0.7l0.9,3.4l-3.3,0.7h-1.6l-2.4-0.9l-1.8-2.6V44h-2.9
			v-3.4h2.9v-5.9h3.5V40.6z"/>
		<path class="st1" d="M231.5,83.4v4.3h-4.2v7.1H223v-7.1h-12.4v-3.2l12.9-18.4h3.9v17.2H231.5z M223,74.3l-6.7,9.1h6.7V74.3z"/>
		<path class="st1" d="M243.8,95.2l-3.8-1.8l-2.8-2.9l-1.5-3.5l-0.6-3.6v-5.8l0.6-3.6l1.5-3.5l2.8-2.9l3.8-1.8h4l3.8,1.8l2.9,2.9
			l1.5,3.5l0.6,3.6v5.8l-0.6,3.6l-1.5,3.5l-2.9,2.9l-3.8,1.8H243.8z M248.9,89.8l1.8-1.8l0.8-2.2l0.6-2.9v-5l-0.6-2.7l-0.8-2.3
			l-1.8-1.7l-2.1-1h-2l-2.2,1l-1.7,1.7l-0.8,2.3l-0.6,2.7v5l0.6,2.9l0.9,2.1l1.7,1.9l2.1,1h2.1L248.9,89.8z"/>
		<path class="st1" d="M279.7,83.4v4.3h-4.2v7.1h-4.4v-7.1h-12.4v-3.2l12.9-18.4h3.9v17.2H279.7z M271.2,74.3l-6.7,9.1h6.7V74.3z"/>
	</g>
</g>
</svg>
