<?xml version="1.0" encoding="utf-8"?>
<!-- Generator: Adobe Illustrator 19.1.0, SVG Export Plug-In . SVG Version: 6.00 Build 0)  -->
<svg version="1.1" id="Layer_1" xmlns="http://www.w3.org/2000/svg" xmlns:xlink="http://www.w3.org/1999/xlink" x="0px" y="0px"
	 viewBox="0 0 28.1 8.3" style="enable-background:new 0 0 28.1 8.3;" xml:space="preserve">
<g>
	<path d="M1,4.9l0.1,0.2l0.4,0.5l0.5,0.2h0.5l0.5-0.1l0.5-0.3L4,6.2L3.3,6.7L2.5,6.9H1.7L0.8,6.4L0.2,5.6L0,4.9v-1l0.2-0.7l0.6-0.8
		L1.7,2h0.8l0.9,0.5L4,3.2l0.2,0.6v1.1H1z M1,4h2.3L3.2,3.7L2.8,3.2L2.3,2.9H1.9L1.4,3.2L1,3.7L1,4z"/>
	<path d="M5.7,6.8H4.4l1.8-2.4L4.5,2h1.2l1.2,1.6L8,2h1.2L7.4,4.4C8,5.1,8.7,6.1,9.2,6.8H8L6.8,5.2L5.7,6.8z"/>
	<path d="M10.7,2.3L11.3,2h0.8l0.9,0.4l0.6,0.8l0.2,0.7v1l-0.2,0.7l-0.6,0.8l-0.9,0.5h-0.8l-0.5-0.2l-0.1-0.1v1.6h-1V2h1V2.3z
		 M10.9,5.6l0.3,0.2l0.3,0.1H12l0.5-0.3l0.4-0.5l0.1-0.3V4l-0.1-0.3l-0.4-0.5l-0.5-0.2h-0.5L11,3.3l-0.2,0.3v1.9L10.9,5.6z"/>
	<path d="M14.5,2.7l0.4-0.3l0.4-0.3L15.9,2h0.8l0.6,0.2L18,2.6l0.3,0.6v2.6l0.4,0.5l-0.8,0.6l-0.4-0.6l-0.1,0.1l-0.8,0.4H16
		l-0.6-0.2l-0.4-0.3l-0.5-0.8V5.1l0.1-0.6l0.7-0.7l0.9-0.2h0.6l0.6,0.2l0,0V3.4l-0.1-0.2L16.9,3l-0.4-0.1H16L15.7,3l-0.2,0.2
		l-0.3,0.2L14.5,2.7z M17.3,5.4l0.1-0.2V4.9l-0.1-0.2L17,4.7l-0.4-0.1h-0.4l-0.5,0.1L15.4,5l-0.1,0.2v0.2l0.2,0.3l0.2,0.1l0.4,0.1
		h0.3l0.6-0.2L17.3,5.4z"/>
	<path d="M20.4,2.3L21.1,2h0.8l0.8,0.2L23.3,3v3.8h-1V3.3l-0.2-0.2l-0.5-0.1h-0.5l-0.6,0.4l-0.2,0.3v3.2h-1V2h1V2.3z"/>
	<path d="M27.2,6.8V6.5l-0.5,0.3h-0.8l-0.9-0.4l-0.6-0.8L24,4.9v-1l0.2-0.7l0.6-0.8L25.7,2h0.8l0.5,0.2l0.1,0.1V0h1v6.8H27.2z
		 M27,3.2L26.7,3l-0.3-0.1h-0.5l-0.5,0.3l-0.4,0.5L25,4v0.8l0.1,0.3l0.4,0.5l0.5,0.2h0.5l0.5-0.3l0.2-0.3V3.4L27,3.2z"/>
</g>
</svg>
