<?xml version="1.0" encoding="utf-8"?>
<!-- Generator: Adobe Illustrator 19.1.0, SVG Export Plug-In . SVG Version: 6.00 Build 0)  -->
<svg version="1.1" id="Layer_1" xmlns="http://www.w3.org/2000/svg" xmlns:xlink="http://www.w3.org/1999/xlink" x="0px" y="0px"
	 viewBox="-497 446.7 28.1 8.3" style="enable-background:new -497 446.7 28.1 8.3;" xml:space="preserve">
<style type="text/css">
	.st0{fill:#FFFFFF;}
</style>
<g>
	<path class="st0" d="M-496,451.6l0.1,0.2l0.4,0.5l0.5,0.2h0.5l0.5-0.1l0.5-0.3l0.5,0.8l-0.7,0.5l-0.8,0.2h-0.8l-0.9-0.5l-0.6-0.8
		l-0.2-0.7v-1l0.2-0.7l0.6-0.8l0.9-0.4h0.8l0.9,0.5l0.6,0.7l0.2,0.6v1.1H-496z M-496,450.7h2.3l-0.1-0.3l-0.4-0.5l-0.5-0.3h-0.4
		l-0.5,0.3l-0.4,0.5V450.7z"/>
	<path class="st0" d="M-491.3,453.5h-1.3l1.8-2.4l-1.7-2.4h1.2l1.2,1.6l1.1-1.6h1.2l-1.8,2.4c0.6,0.7,1.3,1.7,1.8,2.4h-1.2l-1.2-1.6
		L-491.3,453.5z"/>
	<path class="st0" d="M-486.3,449l0.6-0.3h0.8l0.9,0.4l0.6,0.8l0.2,0.7v1l-0.2,0.7l-0.6,0.8l-0.9,0.5h-0.8l-0.5-0.2l-0.1-0.1v1.6h-1
		v-6.2h1V449z M-486.1,452.3l0.3,0.2l0.3,0.1h0.5l0.5-0.3l0.4-0.5l0.1-0.3v-0.8l-0.1-0.3l-0.4-0.5l-0.5-0.2h-0.5l-0.5,0.3l-0.2,0.3
		v1.9L-486.1,452.3z"/>
	<path class="st0" d="M-482.5,449.4l0.4-0.3l0.4-0.3l0.6-0.1h0.8l0.6,0.2l0.7,0.4l0.3,0.6v2.6l0.4,0.5l-0.8,0.6l-0.4-0.6l-0.1,0.1
		l-0.8,0.4h-0.6l-0.6-0.2l-0.4-0.3l-0.5-0.8v-0.4l0.1-0.6l0.7-0.7l0.9-0.2h0.6l0.6,0.2l0,0v-0.4l-0.1-0.2l-0.4-0.2l-0.4-0.1h-0.5
		l-0.3,0.1l-0.2,0.2l-0.3,0.2L-482.5,449.4z M-479.7,452.1l0.1-0.2v-0.3l-0.1-0.2h-0.3l-0.4-0.1h-0.4l-0.5,0.1l-0.3,0.3l-0.1,0.2
		v0.2l0.2,0.3l0.2,0.1l0.4,0.1h0.3l0.6-0.2L-479.7,452.1z"/>
	<path class="st0" d="M-476.6,449l0.7-0.3h0.8l0.8,0.2l0.6,0.8v3.8h-1V450l-0.2-0.2l-0.5-0.1h-0.5l-0.6,0.4l-0.2,0.3v3.2h-1v-4.9h1
		v0.3H-476.6z"/>
	<path class="st0" d="M-469.8,453.5v-0.3l-0.5,0.3h-0.8l-0.9-0.4l-0.6-0.8l-0.4-0.7v-1l0.2-0.7l0.6-0.8l0.9-0.4h0.8l0.5,0.2l0.1,0.1
		v-2.3h1v6.8H-469.8z M-470,449.9l-0.3-0.2l-0.3-0.1h-0.5l-0.5,0.3l-0.4,0.5v0.3v0.8l0.1,0.3l0.4,0.5l0.5,0.2h0.5l0.5-0.3l0.2-0.3
		v-1.8L-470,449.9z"/>
</g>
</svg>
