<?xml version="1.0" encoding="utf-8"?>
<!-- Generator: Adobe Illustrator 19.1.0, SVG Export Plug-In . SVG Version: 6.00 Build 0)  -->
<svg version="1.1" id="Layer_1" xmlns="http://www.w3.org/2000/svg" xmlns:xlink="http://www.w3.org/1999/xlink" x="0px" y="0px"
	 viewBox="0 0 23.7 23.7" style="enable-background:new 0 0 23.7 23.7;" xml:space="preserve">
<style type="text/css">
	.st0{fill:#EFEFEF;}
	.st1{fill:#FFFFFF;}
</style>
<g>
	<g id="XMLID_1847_">
		<polygon class="st0" points="5.7,22.3 0.6,23.1 1.4,18 		"/>
		<path class="st0" d="M0,23.7L1.1,17l5.6,5.6L0,23.7z M1.8,19.1l-0.6,3.4L4.7,22L1.8,19.1z"/>
	</g>
	<g id="XMLID_1845_">
		<line class="st1" x1="3.6" y1="20.2" x2="8.1" y2="15.7"/>
		<rect x="5.3" y="14.7" transform="matrix(0.7071 0.7071 -0.7071 0.7071 14.3767 1.1372)" class="st0" width="1" height="6.3"/>
	</g>
	<g id="XMLID_1838_">
		<polygon class="st0" points="18,1.4 23.1,0.6 22.3,5.7 		"/>
		<path class="st0" d="M22.6,6.7L17,1.1L23.7,0L22.6,6.7z M19.1,1.8L22,4.7l0.6-3.4L19.1,1.8z"/>
	</g>
	<g id="XMLID_1802_">
		<line class="st1" x1="20.2" y1="3.6" x2="15.7" y2="8.1"/>
		<rect x="17.4" y="2.6" transform="matrix(0.7071 0.7071 -0.7071 0.7071 9.3617 -10.9702)" class="st0" width="1" height="6.3"/>
	</g>
	<g id="XMLID_1800_">
		<polygon class="st0" points="1.4,5.7 0.6,0.6 5.7,1.4 		"/>
		<path class="st0" d="M1.1,6.7L0,0l6.7,1.1L1.1,6.7z M1.2,1.2l0.6,3.4l2.9-2.9L1.2,1.2z"/>
	</g>
	<g id="XMLID_1793_">
		<line class="st1" x1="3.6" y1="3.6" x2="8.1" y2="8.1"/>
		<rect x="2.6" y="5.3" transform="matrix(0.7071 0.7071 -0.7071 0.7071 5.8159 -2.409)" class="st0" width="6.3" height="1"/>
	</g>
	<g id="XMLID_1792_">
		<polygon class="st0" points="22.3,18 23.1,23.1 18,22.3 		"/>
		<path class="st0" d="M23.7,23.7L17,22.6l5.6-5.6L23.7,23.7z M19.1,22l3.4,0.6L22,19.1L19.1,22z"/>
	</g>
	<g id="XMLID_1208_">
		<line class="st1" x1="20.2" y1="20.2" x2="15.7" y2="15.7"/>
		<rect x="14.7" y="17.4" transform="matrix(0.7071 0.7071 -0.7071 0.7071 17.9243 -7.4241)" class="st0" width="6.3" height="1"/>
	</g>
</g>
</svg>
