<?xml version="1.0" encoding="utf-8"?>
<!-- Generator: Adobe Illustrator 19.1.0, SVG Export Plug-In . SVG Version: 6.00 Build 0)  -->
<svg version="1.1" id="Layer_1" xmlns="http://www.w3.org/2000/svg" xmlns:xlink="http://www.w3.org/1999/xlink" x="0px" y="0px"
	 viewBox="0 0 19.5 19.4" style="enable-background:new 0 0 19.5 19.4;" xml:space="preserve">
<style type="text/css">
	.st0{fill:#353635;}
</style>
<g>
	<g>
		<path class="st0" d="M2.7,0L0,7.5h1.6l0.6-1.8h2.1L5,7.5h1.6L3.9,0H2.7z M3.8,4.2H2.8l0.5-1.5L3.8,4.2z"/>
		<polygon class="st0" points="2.7,17.9 6,13 6,11.9 0.8,11.9 0.8,13.4 3.9,13.4 0.6,18.3 0.6,19.4 6.1,19.4 6.1,17.9 		"/>
	</g>
	<g>
		<rect x="8.4" y="6.3" class="st0" width="11" height="1"/>
	</g>
	<g>
		<rect x="8.4" y="3.3" class="st0" width="11" height="1"/>
	</g>
	<g>
		<rect x="8.4" y="0.3" class="st0" width="11" height="1"/>
	</g>
	<g>
		<rect x="8.4" y="18" class="st0" width="11" height="1"/>
	</g>
	<g>
		<rect x="8.4" y="15" class="st0" width="11" height="1"/>
	</g>
	<g>
		<rect x="8.4" y="12" class="st0" width="11" height="1"/>
	</g>
</g>
</svg>
