<?xml version="1.0" encoding="utf-8"?>
<!-- Generator: Adobe Illustrator 19.1.0, SVG Export Plug-In . SVG Version: 6.00 Build 0)  -->
<svg version="1.1" id="Layer_1" xmlns="http://www.w3.org/2000/svg" xmlns:xlink="http://www.w3.org/1999/xlink" x="0px" y="0px"
	 viewBox="0 0 21 6.9" style="enable-background:new 0 0 21 6.9;" xml:space="preserve">
<g>
	<path d="M0,0h1.3v1.3H0V0z M0.2,2h1v4.7h-1V2z"/>
	<path d="M3.2,2.3L3.8,2h0.8l0.8,0.2L6.1,3v3.8h-1V3.3L4.9,3.1L4.5,2.9H4L3.4,3.3L3.2,3.6v3.2h-1V2h1V2.3z"/>
	<path d="M10,6.8V6.5L9.4,6.9H8.6L7.6,6.4L7,5.6L6.8,4.9v-1L7,3.2l0.6-0.8L8.5,2h0.8l0.5,0.2l0.1,0.1V0h1v6.8H10z M9.8,3.2L9.5,3
		L9.2,2.9H8.7L8.3,3.2L7.9,3.7L7.8,4v0.8l0.1,0.3l0.4,0.5l0.5,0.2h0.5l0.5-0.3l0.2-0.3V3.4L9.8,3.2z"/>
	<path d="M12.8,4.9l0.1,0.2l0.4,0.5l0.5,0.2h0.5l0.5-0.1l0.5-0.3l0.5,0.8l-0.7,0.5l-0.8,0.2h-0.8l-0.9-0.5L12,5.6l-0.2-0.7v-1
		L12,3.2l0.6-0.8L13.5,2h0.8l0.9,0.5l0.6,0.8l0.2,0.6v1.1H12.8z M12.8,4h2.3L15,3.7l-0.4-0.5l-0.5-0.3h-0.5l-0.4,0.2l-0.4,0.5
		L12.8,4z"/>
	<path d="M17.5,6.8h-1.2L18,4.4L16.3,2h1.2l1.2,1.6L19.8,2H21l-1.8,2.4c0.5,0.7,1.3,1.7,1.8,2.4h-1.2l-1.2-1.6L17.5,6.8z"/>
</g>
</svg>
