<?xml version="1.0" encoding="utf-8"?>
<!-- Generator: Adobe Illustrator 19.1.0, SVG Export Plug-In . SVG Version: 6.00 Build 0)  -->
<svg version="1.1" id="Layer_1" xmlns="http://www.w3.org/2000/svg" xmlns:xlink="http://www.w3.org/1999/xlink" x="0px" y="0px"
	 viewBox="-501 447.1 21 6.9" style="enable-background:new -501 447.1 21 6.9;" xml:space="preserve">
<style type="text/css">
	.st0{fill:#FFFFFF;}
</style>
<g>
	<path class="st0" d="M-501,447.1h1.3v1.3h-1.3V447.1z M-500.8,449.1h1v4.7h-1C-500.8,453.8-500.8,449.1-500.8,449.1z"/>
	<path class="st0" d="M-497.8,449.4l0.6-0.3h0.8l0.8,0.2l0.7,0.8v3.8h-1v-3.5l-0.2-0.2l-0.4-0.2h-0.5l-0.6,0.4l-0.2,0.3v3.2h-1v-4.8
		h1V449.4z"/>
	<path class="st0" d="M-491,453.9v-0.3l-0.6,0.4h-0.8l-1-0.5l-0.6-0.8l-0.2-0.7v-1l0.2-0.7l0.6-0.8l0.9-0.4h0.8l0.5,0.2l0.1,0.1
		v-2.3h1v6.8H-491z M-491.2,450.3l-0.3-0.2l-0.3-0.1h-0.5l-0.4,0.3l-0.4,0.5l-0.1,0.3v0.8l0.1,0.3l0.4,0.5l0.5,0.2h0.5l0.5-0.3
		l0.2-0.3v-1.8L-491.2,450.3z"/>
	<path class="st0" d="M-488.2,452l0.1,0.2l0.4,0.5l0.5,0.2h0.5l0.5-0.1l0.5-0.3l0.5,0.8l-0.7,0.5l-0.8,0.2h-0.8l-0.9-0.5l-0.6-0.8
		l-0.2-0.7v-1l0.2-0.7l0.6-0.8l0.9-0.4h0.8l0.9,0.5l0.6,0.8l0.2,0.6v1.1h-3.2V452z M-488.2,451.1h2.3l-0.1-0.3l-0.4-0.5l-0.5-0.3
		h-0.5l-0.4,0.2l-0.4,0.5V451.1z"/>
	<path class="st0" d="M-483.5,453.9h-1.2l1.7-2.4l-1.7-2.4h1.2l1.2,1.6l1.1-1.6h1.2l-1.8,2.4c0.5,0.7,1.3,1.7,1.8,2.4h-1.2l-1.2-1.6
		L-483.5,453.9z"/>
</g>
</svg>
