<?xml version="1.0" encoding="utf-8"?>
<!-- Generator: Adobe Illustrator 19.1.0, SVG Export Plug-In . SVG Version: 6.00 Build 0)  -->
<svg version="1.1" id="Layer_1" xmlns="http://www.w3.org/2000/svg" xmlns:xlink="http://www.w3.org/1999/xlink" x="0px" y="0px"
	 viewBox="-501 441.6 19.5 19.4" style="enable-background:new -501 441.6 19.5 19.4;" xml:space="preserve">
<style type="text/css">
	.st0{fill:#FFFFFF;}
</style>
<g>
	<g>
		<path class="st0" d="M-498.3,441.6l-2.7,7.5h1.6l0.6-1.8h2.1l0.7,1.8h1.6l-2.7-7.5H-498.3z M-497.2,445.8h-1l0.5-1.5L-497.2,445.8
			z"/>
		<polygon class="st0" points="-498.3,459.5 -495,454.6 -495,453.5 -500.2,453.5 -500.2,455 -497.1,455 -500.4,459.9 -500.4,461 
			-494.9,461 -494.9,459.5 		"/>
	</g>
	<g>
		<rect x="-492.6" y="447.9" class="st0" width="11" height="1"/>
	</g>
	<g>
		<rect x="-492.6" y="444.9" class="st0" width="11" height="1"/>
	</g>
	<g>
		<rect x="-492.6" y="441.9" class="st0" width="11" height="1"/>
	</g>
	<g>
		<rect x="-492.6" y="459.6" class="st0" width="11" height="1"/>
	</g>
	<g>
		<rect x="-492.6" y="456.6" class="st0" width="11" height="1"/>
	</g>
	<g>
		<rect x="-492.6" y="453.6" class="st0" width="11" height="1"/>
	</g>
</g>
</svg>
