<?xml version="1.0" encoding="utf-8"?>
<!-- Generator: Adobe Illustrator 19.1.0, SVG Export Plug-In . SVG Version: 6.00 Build 0)  -->
<svg version="1.1" id="Layer_1" xmlns="http://www.w3.org/2000/svg" xmlns:xlink="http://www.w3.org/1999/xlink" x="0px" y="0px"
	 viewBox="0 0 79.9 16.3" style="enable-background:new 0 0 79.9 16.3;" xml:space="preserve">
<style type="text/css">
	.st0{fill:#FFFFFF;}
</style>
<g>
	<path class="st0" d="M10,3.9L9.1,2.3L7.2,1.7h-2L3.4,2.9L1.7,4.7V16H0V0.2h1.7v2.2l1.5-1.4L5.2,0h2.5L10,0.7l1.4,2l1.5-1.4L15.2,0
		h2.5L20,0.7L21.8,3v13h-1.7V3.8l-1-1.5l-1.9-0.6h-1.9L13.1,3l-1.4,1.6V16H10V3.9z"/>
	<path class="st0" d="M52,2.5l1.5-1.4L55.4,0h2.8l2.6,0.7L62.6,3v13h-1.7V3.8l-1-1.5l-2.1-0.6h-2.3l-1.9,1.3L52,4.7V16h-1.7V0.2H52
		V2.5z"/>
	<path class="st0" d="M74.6,14.7l1.9-1.3l1.6-1.8V0.2h1.7V16h-1.6v-2.2l-1.6,1.4l-1.9,1.1h-2.4l-2.6-0.7l-1.9-2.4v-13h1.7v12.3
		l1.1,1.6l2,0.5H74.6z"/>
	<rect x="28.8" y="7.2" class="st0" width="15" height="1.8"/>
	<rect x="28.8" y="0.2" class="st0" width="15" height="1.8"/>
	<rect x="28.8" y="14.5" class="st0" width="15" height="1.8"/>
</g>
</svg>
