<?xml version="1.0" encoding="utf-8"?>
<!-- Generator: Adobe Illustrator 19.1.0, SVG Export Plug-In . SVG Version: 6.00 Build 0)  -->
<svg version="1.1" id="Layer_1" xmlns="http://www.w3.org/2000/svg" xmlns:xlink="http://www.w3.org/1999/xlink" x="0px" y="0px"
	 viewBox="-496 447.1 29.4 6.9" style="enable-background:new -496 447.1 29.4 6.9;" xml:space="preserve">
<style type="text/css">
	.st0{fill:#FFFFFF;}
</style>
<g>
	<path class="st0" d="M-493.8,450h-0.3l-0.4,0.2l-0.4,0.4l-0.1,0.4v2.9h-1v-4.8h1v0.3l0.1-0.1l0.6-0.2h0.6l0.5,0.2l-0.2,0.9
		L-493.8,450z"/>
	<path class="st0" d="M-492.8,449.8l0.4-0.3l0.4-0.2l0.6-0.2h0.8l0.6,0.1l0.7,0.5l0.3,0.6v2.6l0.4,0.5l-0.8,0.6l-0.4-0.6l-0.1,0.1
		l-0.8,0.5h-0.6l-0.6-0.2l-0.5-0.3l-0.5-0.7v-0.6l0.1-0.6l0.7-0.7l0.9-0.2h0.6l0.6,0.2l0,0v-0.4v-0.2l-0.3-0.2l-0.4-0.1h-0.6
		l-0.3,0.1l-0.3,0.2l-0.2,0.2L-492.8,449.8z M-490,452.5v-0.2V452l-0.1-0.1l-0.2-0.1l-0.4-0.2h-0.4l-0.5,0.2l-0.3,0.3v0.2v0.2
		l0.2,0.3l0.2,0.1l0.4,0.1h0.3l0.6-0.2L-490,452.5z"/>
	<path class="st0" d="M-486.9,449.4l0.7-0.3h0.8l0.8,0.2l0.6,0.8v3.8h-1v-3.5l-0.2-0.2l-0.5-0.1h-0.4l-0.5,0.3l-0.3,0.3v3.2h-1v-4.8
		h1V449.4z"/>
	<path class="st0" d="M-480.1,453.9v-0.3l-0.5,0.3h-0.8l-0.9-0.4l-0.6-0.8l-0.2-0.7v-1l0.2-0.7l0.6-0.8l0.8-0.4h0.8l0.5,0.2l0.1,0.1
		v-2.3h1v6.8H-480.1z M-480.3,450.3l-0.3-0.2l-0.3-0.1h-0.5l-0.5,0.3l-0.4,0.5v0.3v0.8l0.1,0.3l0.4,0.5l0.5,0.2h0.5l0.5-0.3l0.2-0.3
		v-1.8L-480.3,450.3z"/>
	<path class="st0" d="M-476.7,454l-0.9-0.4l-0.5-0.7l-0.2-0.8V451l0.2-0.8l0.5-0.7l0.9-0.4h1l0.9,0.5l0.5,0.7l0.2,0.8v1l-0.2,0.8
		l-0.5,0.7l-0.9,0.4H-476.7z M-475.9,453l0.5-0.2l0.2-0.3l0.1-0.5v-0.9l-0.1-0.5l-0.2-0.3l-0.4-0.2h-0.6l-0.6,0.2l-0.2,0.3l-0.1,0.5
		v0.8l0.1,0.6l0.2,0.3l0.5,0.2C-476.5,453-475.9,453-475.9,453z"/>
	<path class="st0" d="M-472.3,449.4l0.6-0.3h0.8l0.9,0.2l0.3,0.4l0.3-0.3l0.6-0.3h0.8l0.8,0.2l0.6,0.8v3.8h-1v-3.5l-0.2-0.2
		l-0.5-0.1h-0.5l-0.6,0.4l-0.2,0.3v3.2h-1v-3.6l-0.2-0.2l-0.2-0.2h-0.5l-0.6,0.4l-0.2,0.3v3.2h-1v-4.8h1
		C-472.3,449.1-472.3,449.4-472.3,449.4z"/>
</g>
</svg>
