<?xml version="1.0" encoding="utf-8"?>
<!-- Generator: Adobe Illustrator 19.1.0, SVG Export Plug-In . SVG Version: 6.00 Build 0)  -->
<svg version="1.1" id="Layer_1" xmlns="http://www.w3.org/2000/svg" xmlns:xlink="http://www.w3.org/1999/xlink" x="0px" y="0px"
	 viewBox="0 0 29.4 6.9" style="enable-background:new 0 0 29.4 6.9;" xml:space="preserve">
<g>
	<path d="M2.2,2.9H1.9L1.5,3.1L1.1,3.5L1,3.9v2.9H0V2h1v0.3l0.1-0.1L1.7,2h0.6l0.5,0.2L2.6,3.1L2.2,2.9z"/>
	<path d="M3.2,2.7l0.4-0.3L4,2.2L4.6,2h0.8L6,2.1l0.7,0.5L7,3.2v2.6l0.4,0.5L6.6,6.9L6.2,6.3L6.1,6.4L5.3,6.9H4.7L4.1,6.7L3.6,6.4
		L3.1,5.7V5.1l0.1-0.6l0.7-0.7l0.9-0.2h0.6L6,3.8l0,0V3.4L6,3.2L5.7,3L5.3,2.9H4.7L4.4,3L4.1,3.2L3.9,3.4L3.2,2.7z M6,5.4L6,5.2V4.9
		L5.9,4.8L5.7,4.7L5.3,4.5H4.9L4.4,4.7L4.1,5L4.1,5.2v0.2l0.2,0.3l0.2,0.1l0.4,0.1h0.3l0.6-0.2L6,5.4z"/>
	<path d="M9.1,2.3L9.8,2h0.8l0.8,0.2L12,3v3.8h-1V3.3l-0.2-0.2l-0.5-0.1H9.9L9.4,3.3L9.1,3.6v3.2h-1V2h1V2.3z"/>
	<path d="M15.9,6.8V6.5l-0.5,0.3h-0.8l-0.9-0.4l-0.6-0.8l-0.2-0.7v-1l0.2-0.7l0.6-0.8L14.5,2h0.8l0.5,0.2l0.1,0.1V0h1v6.8H15.9z
		 M15.7,3.2L15.4,3l-0.3-0.1h-0.5l-0.5,0.3l-0.4,0.5L13.7,4v0.8l0.1,0.3l0.4,0.5l0.5,0.2h0.5l0.5-0.3l0.2-0.3V3.4L15.7,3.2z"/>
	<path d="M19.3,6.9l-0.9-0.4l-0.5-0.7L17.7,5V3.9l0.2-0.8l0.5-0.7L19.3,2h1l0.9,0.5l0.5,0.7l0.2,0.8V5l-0.2,0.8l-0.5,0.7l-0.9,0.4
		H19.3z M20.1,5.9l0.5-0.2l0.2-0.3l0.1-0.5V4l-0.1-0.5l-0.2-0.3l-0.4-0.2h-0.6L19,3.2l-0.2,0.3L18.7,4v0.8l0.1,0.6L19,5.7l0.5,0.2
		H20.1z"/>
	<path d="M23.7,2.3L24.3,2h0.8L26,2.2l0.3,0.4l0.3-0.3L27.2,2H28l0.8,0.2L29.4,3v3.8h-1V3.3l-0.2-0.2l-0.5-0.1h-0.5l-0.6,0.4
		l-0.2,0.3v3.2h-1V3.3l-0.2-0.2L25,2.9h-0.5l-0.6,0.4l-0.2,0.3v3.2h-1V2h1V2.3z"/>
</g>
</svg>
